<svg width="49" height="49" viewBox="0 0 49 49" fill="none" xmlns="http://www.w3.org/2000/svg">
<path fill-rule="evenodd" clip-rule="evenodd" d="M43.4054 2.76236L38.7383 2.76236L38.7383 0L43.4054 0C46.2408 1.52198e-10 48.5393 2.26738 48.5393 5.06433L48.5393 9.66827L45.739 9.66827L45.739 5.06433C45.739 3.79299 44.6942 2.76236 43.4054 2.76236Z" fill="white"/>
<path fill-rule="evenodd" clip-rule="evenodd" d="M5.13411 46.0394L9.80127 46.0394L9.80127 48.8018L5.13411 48.8018C2.29875 48.8018 0.000242673 46.5344 0.000242921 43.7374L0.000243329 39.1335L2.80054 39.1335L2.80054 43.7374C2.80054 45.0088 3.84531 46.0394 5.13411 46.0394Z" fill="white"/>
<path fill-rule="evenodd" clip-rule="evenodd" d="M5.13509 2.76236L9.80225 2.76236L9.80225 0L5.13509 0C2.29973 -1.52198e-10 0.00121903 2.26738 0.00121903 5.06433L0.00121903 9.66827L2.80151 9.66827L2.80151 5.06433C2.80151 3.79299 3.84629 2.76236 5.13509 2.76236Z" fill="white"/>
<path fill-rule="evenodd" clip-rule="evenodd" d="M43.4045 46.0394L38.7373 46.0394L38.7373 48.8018L43.4045 48.8018C46.2398 48.8018 48.5383 46.5344 48.5383 43.7374L48.5383 39.1335L45.738 39.1335L45.738 43.7374C45.738 45.0088 44.6933 46.0394 43.4045 46.0394Z" fill="white"/>
<path d="M7 12C7 10.6739 7.46094 9.40215 8.28141 8.46447C9.10188 7.52678 10.2147 7 11.375 7H37.625C38.7853 7 39.8981 7.52678 40.7186 8.46447C41.5391 9.40215 42 10.6739 42 12V27.8694L28 39.5V42H11.375C10.2147 42 9.10188 41.4732 8.28141 40.5355C7.46094 39.5979 7 38.3261 7 37V12ZM9.1875 34.5V37C9.1875 37.663 9.41797 38.2989 9.8282 38.7678C10.2384 39.2366 10.7948 39.5 11.375 39.5H28L42 27.8694L39.8125 28.2565L31.5503 23.3825C31.3452 23.2651 31.1129 23.2243 30.8864 23.266C30.6599 23.3078 30.4506 23.4298 30.2881 23.615L22.1725 32.89L16.3538 28.46C16.1437 28.3001 15.8917 28.2283 15.6405 28.2565C15.3893 28.2848 15.1544 28.4114 14.9756 28.615L9.1875 34.5ZM20.125 18.25C20.125 17.2554 19.7793 16.3016 19.1639 15.5983C18.5486 14.8951 17.714 14.5 16.8438 14.5C15.9735 14.5 15.1389 14.8951 14.5236 15.5983C13.9082 16.3016 13.5625 17.2554 13.5625 18.25C13.5625 19.2446 13.9082 20.1984 14.5236 20.9017C15.1389 21.6049 15.9735 22 16.8438 22C17.714 22 18.5486 21.6049 19.1639 20.9017C19.7793 20.1984 20.125 19.2446 20.125 18.25Z" fill="white"/>
<path d="M43.6 44.9L38.3 39.7C37.8 40.1 37.225 40.4167 36.575 40.65C35.925 40.8833 35.2333 41 34.5 41C32.6833 41 31.146 40.3707 29.888 39.112C28.63 37.8533 28.0007 36.316 28 34.5C28 32.6833 28.6293 31.146 29.888 29.888C31.1467 28.63 32.684 28.0007 34.5 28C36.3167 28 37.854 28.6293 39.112 29.888C40.37 31.1467 40.9993 32.684 41 34.5C41 35.2333 40.8833 35.925 40.65 36.575C40.4167 37.225 40.1 37.8 39.7 38.3L45 43.5L43.6 44.9ZM34.5 39C35.75 39 36.8127 38.5623 37.688 37.687C38.5633 36.8117 39.0007 35.7493 39 34.5C39 33.25 38.5623 32.1873 37.687 31.312C36.8117 30.4367 35.7493 29.9993 34.5 30C33.25 30 32.1873 30.4377 31.312 31.313C30.4367 32.1883 29.9993 33.2507 30 34.5C30 35.75 30.4377 36.8127 31.313 37.688C32.1883 38.5633 33.2507 39.0007 34.5 39Z" fill="white"/>
</svg>
