<svg width="29" height="28" viewBox="0 0 29 28" fill="none" xmlns="http://www.w3.org/2000/svg">
<path d="M24 15.6191C24 15.3008 23.8736 14.9956 23.6485 14.7706C23.4235 14.5455 23.1183 14.4191 22.8 14.4191C22.4817 14.4191 22.1765 14.5455 21.9515 14.7706C21.7264 14.9956 21.6 15.3008 21.6 15.6191H24ZM12 6.0191C12.3183 6.0191 12.6235 5.89267 12.8485 5.66763C13.0736 5.44259 13.2 5.13736 13.2 4.8191C13.2 4.50084 13.0736 4.19562 12.8485 3.97057C12.6235 3.74553 12.3183 3.6191 12 3.6191V6.0191ZM21 25.2191H3V27.6191H21V25.2191ZM2.4 24.6191V6.6191H0V24.6191H2.4ZM21.6 15.6191V24.6191H24V15.6191H21.6ZM3 6.0191H12V3.6191H3V6.0191ZM3 25.2191C2.84087 25.2191 2.68826 25.1559 2.57574 25.0434C2.46321 24.9308 2.4 24.7782 2.4 24.6191H0C0 25.4148 0.316071 26.1778 0.87868 26.7404C1.44129 27.303 2.20435 27.6191 3 27.6191V25.2191ZM21 27.6191C21.7957 27.6191 22.5587 27.303 23.1213 26.7404C23.6839 26.1778 24 25.4148 24 24.6191H21.6C21.6 24.7782 21.5368 24.9308 21.4243 25.0434C21.3117 25.1559 21.1591 25.2191 21 25.2191V27.6191ZM2.4 6.6191C2.4 6.45997 2.46321 6.30736 2.57574 6.19484C2.68826 6.08232 2.84087 6.0191 3 6.0191V3.6191C2.20435 3.6191 1.44129 3.93517 0.87868 4.49778C0.316071 5.06039 0 5.82345 0 6.6191H2.4Z" fill="white"/>
<path d="M1.2002 22.2227L7.616 16.3415C7.83224 16.1433 8.1136 16.0312 8.40689 16.0263C8.70018 16.0215 8.98509 16.1242 9.2078 16.3151L16.8002 22.8227M14.4002 19.8227L17.264 16.9589C17.4683 16.7545 17.7394 16.6307 18.0277 16.6102C18.3159 16.5897 18.6019 16.6739 18.833 16.8473L22.8002 19.8227" stroke="white" stroke-width="2" stroke-linecap="round" stroke-linejoin="round"/>
<path d="M18.4652 7.2832L16.3 6.49551M16.3 6.49551C16.3 6.49551 17.1853 9.67795 19.8918 10.6626C22.3832 11.5689 25.059 10.4993 25.8467 8.33412M16.3 6.49551L15.381 9.02153M24.6005 5.02039L26.7656 5.80809M26.7656 5.80809C26.7656 5.80809 25.8803 2.62565 23.1739 1.64103C20.6825 0.734656 18.0067 1.80431 17.219 3.96948M26.7656 5.80809L27.6846 3.28206" stroke="white" stroke-width="2" stroke-linecap="round" stroke-linejoin="round"/>
</svg>
