<svg width="50" height="35" viewBox="0 0 50 35" fill="none" xmlns="http://www.w3.org/2000/svg">
<path fill-rule="evenodd" clip-rule="evenodd" d="M46.333 1.9731L42.9993 1.9731L42.9993 -2.28882e-05L46.333 -2.28881e-05C48.3582 -2.28881e-05 50 1.61954 50 3.61737L50 6.90591L47.9998 6.90591L47.9998 3.61737C47.9998 2.70927 47.2535 1.9731 46.333 1.9731Z" fill="white"/>
<path fill-rule="evenodd" clip-rule="evenodd" d="M18.9967 32.8854L22.3304 32.8854L22.3304 34.8585L18.9967 34.8585C16.9714 34.8585 15.3296 33.2389 15.3296 31.2411L15.3296 27.9525L17.3298 27.9525L17.3298 31.2411C17.3298 32.1492 18.0761 32.8854 18.9967 32.8854Z" fill="white"/>
<path fill-rule="evenodd" clip-rule="evenodd" d="M18.9967 1.9731L22.3304 1.9731L22.3304 -2.28882e-05L18.9967 -2.28883e-05C16.9714 -2.28883e-05 15.3296 1.61954 15.3296 3.61737L15.3296 6.90591L17.3298 6.90591L17.3298 3.61737C17.3298 2.70927 18.0761 1.9731 18.9967 1.9731Z" fill="white"/>
<path fill-rule="evenodd" clip-rule="evenodd" d="M46.3329 32.8854L42.9992 32.8854L42.9992 34.8585L46.3329 34.8585C48.3581 34.8585 49.9999 33.2389 49.9999 31.2411L49.9999 27.9525L47.9997 27.9525L47.9997 31.2411C47.9997 32.1492 47.2534 32.8854 46.3329 32.8854Z" fill="white"/>
<path d="M28.666 6.18442C29.461 5.29349 30.8546 5.29324 31.6499 6.18388L46.6612 22.993C47.8122 24.2818 46.8974 26.3252 45.1695 26.3252H10.9281C10.8348 26.3252 10.7874 26.213 10.8525 26.1461V26.1461L28.666 6.18442Z" fill="white"/>
<path d="M16.1505 9.39157C16.9167 8.56392 18.2153 8.5332 19.0198 9.32371L21.6424 11.9006C21.6595 11.9174 21.6691 11.9404 21.6691 11.9644V11.9644C21.6691 11.9864 21.661 12.0076 21.6463 12.024L8.91846 26.2272C8.87283 26.2782 8.80768 26.3073 8.7393 26.3073V26.3073H5.06728C3.32238 26.3073 2.41426 24.229 3.59965 22.9486L16.1505 9.39157Z" fill="white"/>
<path fill-rule="evenodd" clip-rule="evenodd" d="M22.4199 7.67845L20.0091 7.67845L20.0091 6.30373L22.4199 6.30373C23.8844 6.30373 25.0717 7.43211 25.0717 8.82404L25.0717 11.1152L23.6252 11.1152L23.6252 8.82404C23.6252 8.19135 23.0856 7.67845 22.4199 7.67845Z" fill="white"/>
<path fill-rule="evenodd" clip-rule="evenodd" d="M2.65183 29.2156L5.06256 29.2156L5.06256 30.5903L2.65183 30.5903C1.18728 30.5903 2.6002e-05 29.462 2.61301e-05 28.07L2.63409e-05 25.7788L1.44646 25.7788L1.44646 28.07C1.44646 28.7027 1.98613 29.2156 2.65183 29.2156Z" fill="white"/>
<path fill-rule="evenodd" clip-rule="evenodd" d="M2.65183 7.67845L5.06256 7.67845L5.06256 6.30373L2.65183 6.30373C1.18728 6.30373 2.43336e-05 7.43211 2.43335e-05 8.82404L2.43335e-05 11.1152L1.44646 11.1152L1.44646 8.82404C1.44646 8.19135 1.98612 7.67845 2.65183 7.67845Z" fill="white"/>
<path fill-rule="evenodd" clip-rule="evenodd" d="M22.4199 29.2156L20.0091 29.2156L20.0091 30.5903L22.4199 30.5903C23.8844 30.5903 25.0717 29.462 25.0717 28.07L25.0717 25.7788L23.6252 25.7788L23.6252 28.07C23.6252 28.7027 23.0856 29.2156 22.4199 29.2156Z" fill="white"/>
</svg>
