<svg width="50" height="35" viewBox="0 0 50 35" fill="none" xmlns="http://www.w3.org/2000/svg">
<path fill-rule="evenodd" clip-rule="evenodd" d="M46.333 1.97309L42.9993 1.97309L42.9993 -3.05176e-05L46.333 -3.05175e-05C48.3582 -3.05175e-05 50 1.61953 50 3.61736L50 6.90591L47.9998 6.90591L47.9998 3.61736C47.9998 2.70926 47.2535 1.97309 46.333 1.97309Z" fill="#717171"/>
<path fill-rule="evenodd" clip-rule="evenodd" d="M18.9966 32.8854L22.3303 32.8854L22.3303 34.8585L18.9966 34.8585C16.9714 34.8585 15.3296 33.2389 15.3296 31.2411L15.3296 27.9526L17.3298 27.9526L17.3298 31.2411C17.3298 32.1492 18.0761 32.8854 18.9966 32.8854Z" fill="#717171"/>
<path fill-rule="evenodd" clip-rule="evenodd" d="M18.9966 1.97309L22.3303 1.97309L22.3303 -3.05176e-05L18.9966 -3.05176e-05C16.9714 -3.05177e-05 15.3296 1.61953 15.3296 3.61737L15.3296 6.90591L17.3298 6.90591L17.3298 3.61737C17.3298 2.70926 18.0761 1.97309 18.9966 1.97309Z" fill="#717171"/>
<path fill-rule="evenodd" clip-rule="evenodd" d="M46.3328 32.8854L42.9991 32.8854L42.9991 34.8585L46.3328 34.8585C48.3581 34.8585 49.9999 33.2389 49.9999 31.2411L49.9999 27.9526L47.9997 27.9526L47.9997 31.2411C47.9997 32.1492 47.2534 32.8854 46.3328 32.8854Z" fill="#717171"/>
<path d="M28.666 6.18444C29.461 5.29351 30.8546 5.29325 31.6499 6.18389L46.6612 22.993C47.8122 24.2818 46.8974 26.3252 45.1695 26.3252H10.9281C10.8348 26.3252 10.7874 26.213 10.8525 26.1461L28.666 6.18444Z" fill="#717171"/>
<path d="M16.1505 9.39159C16.9167 8.56394 18.2153 8.53322 19.0198 9.32373L21.6424 11.9007C21.6595 11.9175 21.6691 11.9404 21.6691 11.9644C21.6691 11.9864 21.661 12.0076 21.6463 12.024L8.91846 26.2273C8.87283 26.2782 8.80768 26.3073 8.7393 26.3073H5.06728C3.32238 26.3073 2.41426 24.229 3.59965 22.9486L16.1505 9.39159Z" fill="#717171"/>
<path fill-rule="evenodd" clip-rule="evenodd" d="M22.4198 7.67846L20.0091 7.67846L20.0091 6.30374L22.4198 6.30374C23.8844 6.30374 25.0716 7.43212 25.0716 8.82406L25.0716 11.1153L23.6252 11.1153L23.6252 8.82406C23.6252 8.19136 23.0855 7.67846 22.4198 7.67846Z" fill="#717171"/>
<path fill-rule="evenodd" clip-rule="evenodd" d="M2.65183 29.2156L5.06256 29.2156L5.06256 30.5903L2.65183 30.5903C1.18728 30.5903 2.5853e-05 29.4619 2.59811e-05 28.07L2.61919e-05 25.7788L1.44646 25.7788L1.44646 28.07C1.44646 28.7027 1.98613 29.2156 2.65183 29.2156Z" fill="#717171"/>
<path fill-rule="evenodd" clip-rule="evenodd" d="M2.65183 7.67846L5.06256 7.67846L5.06256 6.30374L2.65183 6.30374C1.18728 6.30374 2.43187e-05 7.43212 2.43186e-05 8.82406L2.43186e-05 11.1153L1.44646 11.1153L1.44646 8.82406C1.44646 8.19136 1.98612 7.67846 2.65183 7.67846Z" fill="#717171"/>
<path fill-rule="evenodd" clip-rule="evenodd" d="M22.4198 29.2156L20.0091 29.2156L20.0091 30.5903L22.4198 30.5903C23.8844 30.5903 25.0716 29.4619 25.0716 28.07L25.0716 25.7788L23.6252 25.7788L23.6252 28.07C23.6252 28.7027 23.0855 29.2156 22.4198 29.2156Z" fill="#717171"/>
</svg>
