<svg width="400" height="346" viewBox="0 0 400 346" fill="none" xmlns="http://www.w3.org/2000/svg">
<path d="M162.13 136.828C159.106 141.643 155.621 146.002 151.677 149.906C147.732 153.81 143.261 157.323 138.264 160.447L148.323 184.65L125.049 194.019L114.99 170.011C109.73 171.312 104.076 171.963 98.0276 171.963C91.979 171.963 86.3248 171.312 81.0651 170.011L71.0059 194.019L47.7318 184.65L57.7909 160.447C52.9257 157.454 48.5207 154.005 44.5759 150.101C40.6312 146.198 37.0809 141.773 33.925 136.828L9.46746 146.783L0 123.751L24.2604 113.796C22.9454 108.591 22.288 102.995 22.288 97.0096C22.288 91.0238 22.9454 85.4283 24.2604 80.2233L0 70.2685L9.46746 47.2361L33.925 57.1908C39.9737 47.4313 47.929 39.5586 57.7909 33.5727L47.7318 9.36914L71.0059 0L81.0651 24.0084C86.3248 22.7071 91.979 22.0565 98.0276 22.0565C104.076 22.0565 109.73 22.7071 114.99 24.0084L125.049 0L148.323 9.36914L138.264 33.5727C148.126 39.5586 156.082 47.4313 162.13 57.1908L186.588 47.2361L196.055 70.2685L171.795 80.2233C173.11 85.4283 173.767 91.0238 173.767 97.0096C173.767 102.995 173.11 108.591 171.795 113.796L196.055 123.751L186.588 146.783L162.13 136.828ZM98.0276 146.978C104.997 146.978 111.506 145.677 117.554 143.075C123.603 140.472 128.994 136.894 133.728 132.339C138.462 127.785 142.078 122.515 144.576 116.529C147.074 110.543 148.389 104.036 148.521 97.0096C148.521 90.1129 147.206 83.6716 144.576 77.6858C141.946 71.6999 138.33 66.3647 133.728 61.6802C129.126 56.9956 123.8 53.4171 117.751 50.9447C111.703 48.4723 105.128 47.171 98.0276 47.0409C91.0585 47.0409 84.5496 48.3422 78.501 50.9447C72.4523 53.5472 67.0611 57.1257 62.3274 61.6802C57.5937 66.2346 53.9776 71.5047 51.4793 77.4906C48.9809 83.4764 47.666 89.9828 47.5345 97.0096C47.5345 103.906 48.8494 110.348 51.4793 116.333C54.1091 122.319 57.7252 127.655 62.3274 132.339C66.9297 137.024 72.2551 140.602 78.3037 143.075C84.3524 145.547 90.927 146.848 98.0276 146.978ZM375.74 234.424C375.74 241.581 374.819 248.803 372.978 256.09L400 267.02L390.533 290.248L363.314 279.122C355.556 291.875 345.299 302.025 332.544 309.572L343.787 336.313L320.316 345.877L309.27 319.136C301.907 320.958 294.609 321.869 287.377 321.869C280.145 321.869 272.847 320.958 265.483 319.136L254.438 345.877L230.966 336.313L242.209 309.572C229.323 302.025 219.066 291.875 211.44 279.122L184.221 290.248L174.753 267.02L201.775 256.09C199.934 248.803 199.014 241.581 199.014 234.424C199.014 227.267 199.934 220.045 201.775 212.758L174.753 201.827L184.221 178.599L211.44 189.725C219.066 177.103 229.323 166.953 242.209 159.275L230.966 132.339L254.438 122.97L265.483 149.711C272.847 147.889 280.145 146.978 287.377 146.978C294.609 146.978 301.907 147.889 309.27 149.711L320.316 122.97L343.787 132.339L332.544 159.275C345.299 166.953 355.556 177.103 363.314 189.725L390.533 178.599L400 201.827L372.978 212.758C374.819 220.045 375.74 227.267 375.74 234.424ZM287.377 296.885C296.055 296.885 304.208 295.258 311.834 292.005C319.461 288.752 326.101 284.327 331.755 278.732C337.41 273.136 341.946 266.5 345.365 258.822C348.784 251.145 350.493 243.012 350.493 234.424C350.493 225.835 348.849 217.767 345.562 210.22C342.275 202.673 337.738 196.101 331.953 190.506C326.167 184.91 319.461 180.421 311.834 177.038C304.208 173.654 296.055 171.963 287.377 171.963C278.698 171.963 270.546 173.589 262.919 176.843C255.293 180.096 248.586 184.585 242.801 190.311C237.015 196.036 232.479 202.673 229.191 210.22C225.904 217.767 224.26 225.835 224.26 234.424C224.26 243.012 225.904 251.08 229.191 258.627C232.479 266.175 236.949 272.811 242.604 278.537C248.258 284.262 254.964 288.752 262.722 292.005C270.48 295.258 278.698 296.885 287.377 296.885Z" fill="#41425D"/>
</svg>
