<svg width="349" height="100" viewBox="0 0 349 100" fill="none" xmlns="http://www.w3.org/2000/svg">
<circle cx="70" cy="50" r="40" fill="#3C8BB8"/>
<rect x="82.1655" y="34.953" width="8.8" height="36" rx="4.4" transform="rotate(28.3371 82.1655 34.953)" fill="url(#paint0_linear_185_2)"/>
<rect x="49.3003" y="40.7918" width="8.8" height="36" rx="4.4" transform="rotate(-30.8255 49.3003 40.7918)" fill="#50FFE7"/>
<path d="M146.896 62V40.1818H161.342V43.9851H151.509V49.1839H160.384V52.9872H151.509V62H146.896ZM170.552 62.3196C168.897 62.3196 167.466 61.968 166.259 61.2649C165.059 60.5547 164.132 59.5675 163.478 58.3033C162.825 57.032 162.498 55.5582 162.498 53.8821C162.498 52.1918 162.825 50.7145 163.478 49.4503C164.132 48.179 165.059 47.1918 166.259 46.4886C167.466 45.7784 168.897 45.4233 170.552 45.4233C172.207 45.4233 173.635 45.7784 174.835 46.4886C176.042 47.1918 176.973 48.179 177.626 49.4503C178.279 50.7145 178.606 52.1918 178.606 53.8821C178.606 55.5582 178.279 57.032 177.626 58.3033C176.973 59.5675 176.042 60.5547 174.835 61.2649C173.635 61.968 172.207 62.3196 170.552 62.3196ZM170.574 58.804C171.326 58.804 171.955 58.5909 172.459 58.1648C172.963 57.7315 173.343 57.142 173.599 56.3963C173.862 55.6506 173.993 54.8018 173.993 53.8501C173.993 52.8984 173.862 52.0497 173.599 51.304C173.343 50.5582 172.963 49.9687 172.459 49.5355C171.955 49.1023 171.326 48.8857 170.574 48.8857C169.814 48.8857 169.174 49.1023 168.656 49.5355C168.145 49.9687 167.757 50.5582 167.495 51.304C167.239 52.0497 167.111 52.8984 167.111 53.8501C167.111 54.8018 167.239 55.6506 167.495 56.3963C167.757 57.142 168.145 57.7315 168.656 58.1648C169.174 58.5909 169.814 58.804 170.574 58.804ZM190.261 45.6364V49.0455H180.407V45.6364H190.261ZM182.644 41.7159H187.182V56.9716C187.182 57.3906 187.246 57.7173 187.374 57.9517C187.502 58.179 187.679 58.3388 187.907 58.4311C188.141 58.5234 188.411 58.5696 188.716 58.5696C188.929 58.5696 189.142 58.5518 189.355 58.5163C189.569 58.4737 189.732 58.4418 189.846 58.4205L190.559 61.7976C190.332 61.8686 190.012 61.9503 189.6 62.0426C189.189 62.142 188.688 62.2024 188.098 62.2237C187.005 62.2663 186.046 62.1207 185.222 61.7869C184.405 61.4531 183.77 60.9347 183.315 60.2315C182.86 59.5284 182.637 58.6406 182.644 57.5682V41.7159ZM200.435 62.3196C198.78 62.3196 197.349 61.968 196.142 61.2649C194.941 60.5547 194.015 59.5675 193.361 58.3033C192.708 57.032 192.381 55.5582 192.381 53.8821C192.381 52.1918 192.708 50.7145 193.361 49.4503C194.015 48.179 194.941 47.1918 196.142 46.4886C197.349 45.7784 198.78 45.4233 200.435 45.4233C202.09 45.4233 203.517 45.7784 204.718 46.4886C205.925 47.1918 206.855 48.179 207.509 49.4503C208.162 50.7145 208.489 52.1918 208.489 53.8821C208.489 55.5582 208.162 57.032 207.509 58.3033C206.855 59.5675 205.925 60.5547 204.718 61.2649C203.517 61.968 202.09 62.3196 200.435 62.3196ZM200.456 58.804C201.209 58.804 201.838 58.5909 202.342 58.1648C202.846 57.7315 203.226 57.142 203.482 56.3963C203.745 55.6506 203.876 54.8018 203.876 53.8501C203.876 52.8984 203.745 52.0497 203.482 51.304C203.226 50.5582 202.846 49.9687 202.342 49.5355C201.838 49.1023 201.209 48.8857 200.456 48.8857C199.696 48.8857 199.057 49.1023 198.539 49.5355C198.027 49.9687 197.64 50.5582 197.377 51.304C197.122 52.0497 196.994 52.8984 196.994 53.8501C196.994 54.8018 197.122 55.6506 197.377 56.3963C197.64 57.142 198.027 57.7315 198.539 58.1648C199.057 58.5909 199.696 58.804 200.456 58.804ZM213.621 40.1818L218.895 56.7585H219.097L224.381 40.1818H229.495L221.974 62H216.029L208.497 40.1818H213.621ZM237.647 62.3196C235.964 62.3196 234.515 61.9787 233.301 61.2969C232.093 60.608 231.163 59.6349 230.51 58.3778C229.856 57.1136 229.529 55.6186 229.529 53.8928C229.529 52.2095 229.856 50.7322 230.51 49.4609C231.163 48.1896 232.083 47.1989 233.269 46.4886C234.462 45.7784 235.861 45.4233 237.466 45.4233C238.546 45.4233 239.551 45.5973 240.481 45.9453C241.419 46.2862 242.235 46.8011 242.931 47.4901C243.635 48.179 244.181 49.0455 244.572 50.0895C244.963 51.1264 245.158 52.3409 245.158 53.733V54.9794H231.341V52.1669H240.886C240.886 51.5135 240.744 50.9347 240.46 50.4304C240.176 49.9261 239.782 49.532 239.277 49.2479C238.78 48.9567 238.201 48.8111 237.541 48.8111C236.852 48.8111 236.241 48.9709 235.708 49.2905C235.183 49.603 234.771 50.0256 234.473 50.5582C234.174 51.0838 234.022 51.6697 234.015 52.3161V54.9901C234.015 55.7997 234.164 56.4993 234.462 57.0888C234.767 57.6783 235.197 58.1328 235.751 58.4524C236.305 58.772 236.962 58.9318 237.722 58.9318C238.226 58.9318 238.688 58.8608 239.107 58.7188C239.526 58.5767 239.885 58.3636 240.183 58.0795C240.481 57.7955 240.708 57.4474 240.865 57.0355L245.062 57.3125C244.849 58.321 244.412 59.2017 243.752 59.9545C243.098 60.7003 242.253 61.2827 241.216 61.7017C240.186 62.1136 238.997 62.3196 237.647 62.3196ZM248.12 62V45.6364H252.52V48.4915H252.69C252.988 47.4759 253.489 46.7088 254.192 46.1903C254.895 45.6648 255.705 45.402 256.621 45.402C256.848 45.402 257.093 45.4162 257.356 45.4446C257.619 45.473 257.85 45.5121 258.049 45.5618V49.5888C257.836 49.5249 257.541 49.468 257.164 49.4183C256.788 49.3686 256.444 49.3438 256.131 49.3438C255.463 49.3438 254.867 49.4893 254.341 49.7805C253.823 50.0646 253.411 50.4624 253.105 50.9737C252.807 51.4851 252.658 52.0746 252.658 52.7422V62H248.12ZM260.395 62V45.6364H264.933V62H260.395ZM262.675 43.527C262 43.527 261.421 43.3033 260.938 42.8558C260.463 42.4013 260.225 41.858 260.225 41.2259C260.225 40.6009 260.463 40.0646 260.938 39.6172C261.421 39.1626 262 38.9354 262.675 38.9354C263.35 38.9354 263.925 39.1626 264.401 39.6172C264.884 40.0646 265.125 40.6009 265.125 41.2259C265.125 41.858 264.884 42.4013 264.401 42.8558C263.925 43.3033 263.35 43.527 262.675 43.527ZM277.369 45.6364V49.0455H267.269V45.6364H277.369ZM269.581 62V44.4538C269.581 43.2678 269.812 42.2841 270.273 41.5028C270.742 40.7216 271.381 40.1357 272.191 39.745C273.001 39.3544 273.92 39.1591 274.95 39.1591C275.646 39.1591 276.282 39.2124 276.857 39.3189C277.44 39.4254 277.873 39.5213 278.157 39.6065L277.347 43.0156C277.17 42.9588 276.95 42.9055 276.687 42.8558C276.431 42.8061 276.168 42.7812 275.898 42.7812C275.231 42.7812 274.766 42.9375 274.503 43.25C274.24 43.5554 274.109 43.9851 274.109 44.5391V62H269.581ZM280.141 62V45.6364H284.68V62H280.141ZM282.421 43.527C281.746 43.527 281.167 43.3033 280.684 42.8558C280.209 42.4013 279.971 41.858 279.971 41.2259C279.971 40.6009 280.209 40.0646 280.684 39.6172C281.167 39.1626 281.746 38.9354 282.421 38.9354C283.096 38.9354 283.671 39.1626 284.147 39.6172C284.63 40.0646 284.871 40.6009 284.871 41.2259C284.871 41.858 284.63 42.4013 284.147 42.8558C283.671 43.3033 283.096 43.527 282.421 43.527ZM295.772 62.3196C294.089 62.3196 292.64 61.9787 291.426 61.2969C290.218 60.608 289.288 59.6349 288.635 58.3778C287.981 57.1136 287.654 55.6186 287.654 53.8928C287.654 52.2095 287.981 50.7322 288.635 49.4609C289.288 48.1896 290.208 47.1989 291.394 46.4886C292.587 45.7784 293.986 45.4233 295.591 45.4233C296.671 45.4233 297.676 45.5973 298.606 45.9453C299.544 46.2862 300.36 46.8011 301.056 47.4901C301.76 48.179 302.306 49.0455 302.697 50.0895C303.088 51.1264 303.283 52.3409 303.283 53.733V54.9794H289.466V52.1669H299.011C299.011 51.5135 298.869 50.9347 298.585 50.4304C298.301 49.9261 297.907 49.532 297.402 49.2479C296.905 48.9567 296.326 48.8111 295.666 48.8111C294.977 48.8111 294.366 48.9709 293.833 49.2905C293.308 49.603 292.896 50.0256 292.598 50.5582C292.299 51.0838 292.147 51.6697 292.14 52.3161V54.9901C292.14 55.7997 292.289 56.4993 292.587 57.0888C292.892 57.6783 293.322 58.1328 293.876 58.4524C294.43 58.772 295.087 58.9318 295.847 58.9318C296.351 58.9318 296.813 58.8608 297.232 58.7188C297.651 58.5767 298.01 58.3636 298.308 58.0795C298.606 57.7955 298.833 57.4474 298.99 57.0355L303.187 57.3125C302.974 58.321 302.537 59.2017 301.877 59.9545C301.223 60.7003 300.378 61.2827 299.341 61.7017C298.311 62.1136 297.122 62.3196 295.772 62.3196ZM306.245 62V45.6364H310.645V48.4915H310.815C311.113 47.4759 311.614 46.7088 312.317 46.1903C313.02 45.6648 313.83 45.402 314.746 45.402C314.973 45.402 315.218 45.4162 315.481 45.4446C315.744 45.473 315.975 45.5121 316.174 45.5618V49.5888C315.961 49.5249 315.666 49.468 315.289 49.4183C314.913 49.3686 314.569 49.3438 314.256 49.3438C313.588 49.3438 312.992 49.4893 312.466 49.7805C311.948 50.0646 311.536 50.4624 311.23 50.9737C310.932 51.4851 310.783 52.0746 310.783 52.7422V62H306.245Z" fill="white"/>
<defs>
<linearGradient id="paint0_linear_185_2" x1="86.5655" y1="34.953" x2="88.1446" y2="62.8859" gradientUnits="userSpaceOnUse">
<stop stop-color="white"/>
<stop offset="1" stop-color="white" stop-opacity="0"/>
</linearGradient>
</defs>
</svg>
