<svg width="324" height="100" viewBox="0 0 324 100" fill="none" xmlns="http://www.w3.org/2000/svg">
<circle cx="40" cy="50" r="40" fill="#3C8BB8"/>
<rect x="52.1655" y="34.953" width="8.8" height="36" rx="4.4" transform="rotate(28.3371 52.1655 34.953)" fill="url(#paint0_linear_185_2)"/>
<rect x="19.3003" y="40.7918" width="8.8" height="36" rx="4.4" transform="rotate(-30.8255 19.3003 40.7918)" fill="#50FFE7"/>
<path d="M97.5284 65V35.9091H116.79V40.9801H103.679V47.9119H115.511V52.983H103.679V65H97.5284ZM129.07 65.4261C126.863 65.4261 124.955 64.9574 123.345 64.0199C121.745 63.0729 120.509 61.7566 119.638 60.071C118.767 58.3759 118.331 56.411 118.331 54.1761C118.331 51.9223 118.767 49.9527 119.638 48.267C120.509 46.572 121.745 45.2557 123.345 44.3182C124.955 43.3712 126.863 42.8977 129.07 42.8977C131.276 42.8977 133.179 43.3712 134.78 44.3182C136.39 45.2557 137.63 46.572 138.501 48.267C139.373 49.9527 139.808 51.9223 139.808 54.1761C139.808 56.411 139.373 58.3759 138.501 60.071C137.63 61.7566 136.39 63.0729 134.78 64.0199C133.179 64.9574 131.276 65.4261 129.07 65.4261ZM129.098 60.7386C130.102 60.7386 130.94 60.4545 131.612 59.8864C132.285 59.3087 132.791 58.5227 133.132 57.5284C133.482 56.5341 133.658 55.4025 133.658 54.1335C133.658 52.8646 133.482 51.733 133.132 50.7386C132.791 49.7443 132.285 48.9583 131.612 48.3807C130.94 47.803 130.102 47.5142 129.098 47.5142C128.085 47.5142 127.232 47.803 126.541 48.3807C125.859 48.9583 125.343 49.7443 124.993 50.7386C124.652 51.733 124.482 52.8646 124.482 54.1335C124.482 55.4025 124.652 56.5341 124.993 57.5284C125.343 58.5227 125.859 59.3087 126.541 59.8864C127.232 60.4545 128.085 60.7386 129.098 60.7386ZM155.348 43.1818V47.7273H142.209V43.1818H155.348ZM145.192 37.9545H151.243V58.2955C151.243 58.8542 151.328 59.2898 151.499 59.6023C151.669 59.9053 151.906 60.1184 152.209 60.2415C152.521 60.3646 152.881 60.4261 153.288 60.4261C153.572 60.4261 153.857 60.4025 154.141 60.3551C154.425 60.2983 154.643 60.2557 154.794 60.2273L155.746 64.7301C155.443 64.8248 155.017 64.9337 154.467 65.0568C153.918 65.1894 153.25 65.2699 152.464 65.2983C151.006 65.3551 149.728 65.161 148.629 64.7159C147.54 64.2708 146.693 63.5795 146.087 62.642C145.481 61.7045 145.182 60.5208 145.192 59.0909V37.9545ZM168.913 65.4261C166.707 65.4261 164.799 64.9574 163.189 64.0199C161.589 63.0729 160.353 61.7566 159.482 60.071C158.61 58.3759 158.175 56.411 158.175 54.1761C158.175 51.9223 158.61 49.9527 159.482 48.267C160.353 46.572 161.589 45.2557 163.189 44.3182C164.799 43.3712 166.707 42.8977 168.913 42.8977C171.12 42.8977 173.023 43.3712 174.624 44.3182C176.233 45.2557 177.474 46.572 178.345 48.267C179.216 49.9527 179.652 51.9223 179.652 54.1761C179.652 56.411 179.216 58.3759 178.345 60.071C177.474 61.7566 176.233 63.0729 174.624 64.0199C173.023 64.9574 171.12 65.4261 168.913 65.4261ZM168.942 60.7386C169.946 60.7386 170.784 60.4545 171.456 59.8864C172.128 59.3087 172.635 58.5227 172.976 57.5284C173.326 56.5341 173.501 55.4025 173.501 54.1335C173.501 52.8646 173.326 51.733 172.976 50.7386C172.635 49.7443 172.128 48.9583 171.456 48.3807C170.784 47.803 169.946 47.5142 168.942 47.5142C167.929 47.5142 167.076 47.803 166.385 48.3807C165.703 48.9583 165.187 49.7443 164.837 50.7386C164.496 51.733 164.325 52.8646 164.325 54.1335C164.325 55.4025 164.496 56.5341 164.837 57.5284C165.187 58.5227 165.703 59.3087 166.385 59.8864C167.076 60.4545 167.929 60.7386 168.942 60.7386ZM186.495 35.9091L193.526 58.0114H193.796L200.842 35.9091H207.66L197.631 65H189.705L179.663 35.9091H186.495ZM218.53 65.4261C216.286 65.4261 214.354 64.9716 212.734 64.0625C211.125 63.1439 209.884 61.8466 209.013 60.1705C208.142 58.4848 207.706 56.4915 207.706 54.1903C207.706 51.946 208.142 49.9763 209.013 48.2812C209.884 46.5862 211.11 45.2652 212.692 44.3182C214.283 43.3712 216.148 42.8977 218.288 42.8977C219.728 42.8977 221.068 43.1297 222.308 43.5938C223.558 44.0483 224.647 44.7348 225.575 45.6534C226.513 46.572 227.242 47.7273 227.763 49.1193C228.284 50.5019 228.544 52.1212 228.544 53.9773V55.6392H210.121V51.8892H222.848C222.848 51.018 222.659 50.2462 222.28 49.5739C221.901 48.9015 221.375 48.3759 220.703 47.9972C220.04 47.6089 219.268 47.4148 218.388 47.4148C217.469 47.4148 216.655 47.6278 215.945 48.054C215.244 48.4706 214.695 49.0341 214.297 49.7443C213.899 50.4451 213.696 51.2263 213.686 52.0881V55.6534C213.686 56.733 213.885 57.6657 214.283 58.4517C214.69 59.2377 215.263 59.8438 216.001 60.2699C216.74 60.696 217.616 60.9091 218.629 60.9091C219.302 60.9091 219.917 60.8144 220.476 60.625C221.035 60.4356 221.513 60.1515 221.911 59.7727C222.308 59.3939 222.611 58.9299 222.82 58.3807L228.416 58.75C228.132 60.0947 227.55 61.2689 226.669 62.2727C225.798 63.267 224.671 64.0436 223.288 64.6023C221.915 65.1515 220.329 65.4261 218.53 65.4261ZM232.493 65V43.1818H238.359V46.9886H238.587C238.984 45.6345 239.652 44.6117 240.589 43.9205C241.527 43.2197 242.607 42.8693 243.828 42.8693C244.131 42.8693 244.458 42.8883 244.808 42.9261C245.159 42.964 245.466 43.0161 245.732 43.0824V48.4517C245.447 48.3665 245.054 48.2907 244.553 48.2244C244.051 48.1581 243.591 48.125 243.175 48.125C242.285 48.125 241.489 48.3191 240.788 48.7074C240.097 49.0862 239.548 49.6165 239.141 50.2983C238.743 50.9801 238.544 51.7661 238.544 52.6562V65H232.493ZM248.86 65V43.1818H254.911V65H248.86ZM251.9 40.3693C251 40.3693 250.228 40.071 249.585 39.4744C248.95 38.8684 248.633 38.1439 248.633 37.3011C248.633 36.4678 248.95 35.7528 249.585 35.1562C250.228 34.5502 251 34.2472 251.9 34.2472C252.799 34.2472 253.567 34.5502 254.201 35.1562C254.845 35.7528 255.167 36.4678 255.167 37.3011C255.167 38.1439 254.845 38.8684 254.201 39.4744C253.567 40.071 252.799 40.3693 251.9 40.3693ZM271.491 43.1818V47.7273H258.026V43.1818H271.491ZM261.108 65V41.6051C261.108 40.0237 261.416 38.7121 262.031 37.6705C262.656 36.6288 263.509 35.8475 264.588 35.3267C265.668 34.8059 266.894 34.5455 268.267 34.5455C269.195 34.5455 270.043 34.6165 270.81 34.7585C271.586 34.9006 272.164 35.0284 272.543 35.142L271.463 39.6875C271.226 39.6117 270.933 39.5407 270.582 39.4744C270.241 39.4081 269.891 39.375 269.531 39.375C268.641 39.375 268.021 39.5833 267.67 40C267.32 40.4072 267.145 40.9801 267.145 41.7188V65H261.108ZM275.188 65V43.1818H281.239V65H275.188ZM278.228 40.3693C277.328 40.3693 276.557 40.071 275.913 39.4744C275.278 38.8684 274.961 38.1439 274.961 37.3011C274.961 36.4678 275.278 35.7528 275.913 35.1562C276.557 34.5502 277.328 34.2472 278.228 34.2472C279.128 34.2472 279.895 34.5502 280.529 35.1562C281.173 35.7528 281.495 36.4678 281.495 37.3011C281.495 38.1439 281.173 38.8684 280.529 39.4744C279.895 40.071 279.128 40.3693 278.228 40.3693ZM296.03 65.4261C293.786 65.4261 291.854 64.9716 290.234 64.0625C288.625 63.1439 287.384 61.8466 286.513 60.1705C285.642 58.4848 285.206 56.4915 285.206 54.1903C285.206 51.946 285.642 49.9763 286.513 48.2812C287.384 46.5862 288.61 45.2652 290.192 44.3182C291.783 43.3712 293.648 42.8977 295.788 42.8977C297.228 42.8977 298.568 43.1297 299.808 43.5938C301.058 44.0483 302.147 44.7348 303.075 45.6534C304.013 46.572 304.742 47.7273 305.263 49.1193C305.784 50.5019 306.044 52.1212 306.044 53.9773V55.6392H287.621V51.8892H300.348C300.348 51.018 300.159 50.2462 299.78 49.5739C299.401 48.9015 298.875 48.3759 298.203 47.9972C297.54 47.6089 296.768 47.4148 295.888 47.4148C294.969 47.4148 294.155 47.6278 293.445 48.054C292.744 48.4706 292.195 49.0341 291.797 49.7443C291.399 50.4451 291.196 51.2263 291.186 52.0881V55.6534C291.186 56.733 291.385 57.6657 291.783 58.4517C292.19 59.2377 292.763 59.8438 293.501 60.2699C294.24 60.696 295.116 60.9091 296.129 60.9091C296.802 60.9091 297.417 60.8144 297.976 60.625C298.535 60.4356 299.013 60.1515 299.411 59.7727C299.808 59.3939 300.111 58.9299 300.32 58.3807L305.916 58.75C305.632 60.0947 305.05 61.2689 304.169 62.2727C303.298 63.267 302.171 64.0436 300.788 64.6023C299.415 65.1515 297.829 65.4261 296.03 65.4261ZM309.993 65V43.1818H315.859V46.9886H316.087C316.484 45.6345 317.152 44.6117 318.089 43.9205C319.027 43.2197 320.107 42.8693 321.328 42.8693C321.631 42.8693 321.958 42.8883 322.308 42.9261C322.659 42.964 322.966 43.0161 323.232 43.0824V48.4517C322.947 48.3665 322.554 48.2907 322.053 48.2244C321.551 48.1581 321.091 48.125 320.675 48.125C319.785 48.125 318.989 48.3191 318.288 48.7074C317.597 49.0862 317.048 49.6165 316.641 50.2983C316.243 50.9801 316.044 51.7661 316.044 52.6562V65H309.993Z" fill="white"/>
<defs>
<linearGradient id="paint0_linear_185_2" x1="56.5655" y1="34.953" x2="58.1446" y2="62.8859" gradientUnits="userSpaceOnUse">
<stop stop-color="white"/>
<stop offset="1" stop-color="white" stop-opacity="0"/>
</linearGradient>
</defs>
</svg>
