<svg width="130" height="130" viewBox="0 0 130 130" fill="none" xmlns="http://www.w3.org/2000/svg">
<path d="M64.9984 0C67.7478 0 69.9772 2.22944 69.9772 4.97888V60.013H125.018C126.339 60.013 127.606 60.5379 128.541 61.4722C129.475 62.4066 130 63.6738 130 64.9951C130 66.3165 129.475 67.5837 128.541 68.518C127.606 69.4523 126.339 69.9772 125.018 69.9772H69.9772V125.018C69.9772 126.338 69.4527 127.605 68.519 128.538C67.5853 129.472 66.3189 129.997 64.9984 129.997C63.6779 129.997 62.4115 129.472 61.4778 128.538C60.5441 127.605 60.0195 126.338 60.0195 125.018L60.013 69.9772H4.97888C3.6584 69.9772 2.392 69.4527 1.45828 68.519C0.524559 67.5853 0 66.3189 0 64.9984C0 63.6779 0.524559 62.4115 1.45828 61.4778C2.392 60.5441 3.6584 60.0195 4.97888 60.0195L60.013 60.013V4.97888C60.0164 3.65833 60.543 2.39294 61.4774 1.45978C62.4118 0.526618 63.6778 0.001715 64.9984 0Z" fill="#1B4A65"/>
</svg>
