<svg width="25" height="25" viewBox="0 0 25 25" fill="none" xmlns="http://www.w3.org/2000/svg">
<path d="M14.3519 18.5185C14.3519 18.8848 14.2432 19.2428 14.0398 19.5473C13.8363 19.8519 13.5471 20.0892 13.2087 20.2294C12.8703 20.3696 12.4979 20.4062 12.1387 20.3348C11.7795 20.2633 11.4495 20.087 11.1905 19.828C10.9316 19.569 10.7552 19.239 10.6837 18.8798C10.6123 18.5206 10.649 18.1482 10.7891 17.8098C10.9293 17.4715 11.1666 17.1822 11.4712 16.9788C11.7757 16.7753 12.1337 16.6667 12.5 16.6667C12.9911 16.6667 13.4622 16.8618 13.8095 17.2091C14.1567 17.5563 14.3519 18.0274 14.3519 18.5185ZM25 12.5C25 14.9723 24.2669 17.389 22.8934 19.4446C21.5199 21.5002 19.5676 23.1024 17.2835 24.0485C14.9995 24.9946 12.4861 25.2421 10.0614 24.7598C7.63661 24.2775 5.40933 23.087 3.66117 21.3388C1.91301 19.5907 0.722505 17.3634 0.24019 14.9386C-0.242126 12.5139 0.00541607 10.0005 0.951511 7.71646C1.89761 5.43238 3.49976 3.48015 5.55538 2.10663C7.61099 0.733112 10.0277 0 12.5 0C15.8141 0.00367618 18.9914 1.32182 21.3348 3.66522C23.6782 6.00863 24.9963 9.18592 25 12.5ZM22.2222 12.5C22.2222 10.5771 21.652 8.69743 20.5837 7.09862C19.5154 5.49981 17.997 4.25369 16.2205 3.51784C14.444 2.78199 12.4892 2.58945 10.6033 2.96459C8.71737 3.33972 6.98503 4.26567 5.62535 5.62535C4.26568 6.98503 3.33973 8.71736 2.96459 10.6033C2.58946 12.4892 2.78199 14.444 3.51784 16.2205C4.25369 17.997 5.49982 19.5154 7.09863 20.5837C8.69744 21.652 10.5771 22.2222 12.5 22.2222C15.0776 22.2195 17.5489 21.1943 19.3716 19.3716C21.1943 17.5489 22.2195 15.0776 22.2222 12.5ZM12.5 5.09259C9.69213 5.09259 7.40741 7.16898 7.40741 9.72222V10.1852C7.40741 10.5535 7.55374 10.9068 7.81421 11.1673C8.07467 11.4277 8.42794 11.5741 8.7963 11.5741C9.16466 11.5741 9.51793 11.4277 9.77839 11.1673C10.0389 10.9068 10.1852 10.5535 10.1852 10.1852V9.72222C10.1852 8.70139 11.2269 7.87037 12.5 7.87037C13.7732 7.87037 14.8148 8.70139 14.8148 9.72222C14.8148 10.7431 13.7732 11.5741 12.5 11.5741C12.1316 11.5741 11.7784 11.7204 11.5179 11.9809C11.2574 12.2413 11.1111 12.5946 11.1111 12.963V13.8889C11.1103 14.232 11.2365 14.5633 11.4655 14.8189C11.6944 15.0745 12.0099 15.2363 12.351 15.2731C12.6922 15.3099 13.0349 15.2191 13.3131 15.0182C13.5913 14.8174 13.7853 14.5206 13.8576 14.1852C16.0081 13.6435 17.5926 11.8484 17.5926 9.72222C17.5926 7.16898 15.3079 5.09259 12.5 5.09259Z" fill="white"/>
</svg>
