<svg width="50" height="28" viewBox="0 0 50 28" fill="none" xmlns="http://www.w3.org/2000/svg">
<path d="M45.6311 12.4709C43.4466 16.4757 46.7233 15.3835 41.6262 17.932C36.5291 19.0243 30.3398 13.1288 30.3398 8.10194C32.5243 3.36893 29.2476 7.37378 36.5291 3.36893C41.556 3.36893 45.6311 7.44401 45.6311 12.4709Z" fill="white"/>
<path d="M9.96066 15.0592L7.94984 15.3979L9.05684 14.1124L9.96066 15.0592Z" fill="white" stroke="white" stroke-width="4"/>
<path d="M3.32972 17.8486L7.9202 12.68C8.52018 12.0045 9.57681 12.0088 10.1713 12.6891L12.8044 15.7027C12.9354 15.8526 13.0076 16.0449 13.0076 16.244C13.0076 16.4796 12.9065 16.704 12.73 16.8601L9.21678 19.9681C8.94254 20.2107 8.58904 20.3447 8.22289 20.3447H4.45124C3.15726 20.3447 2.47044 18.8161 3.32972 17.8486Z" stroke="white"/>
<path d="M22.9125 15.7522L15.3065 17.0333L19.4938 12.1706L22.9125 15.7522Z" fill="white" stroke="white" stroke-width="4"/>
<path d="M20.6449 10.5047L29.6145 20.7703C30.4621 21.7404 29.7732 23.2573 28.4849 23.2573H10.3978C9.10385 23.2573 8.41703 21.7287 9.27631 20.7612L18.3938 10.4955C18.9938 9.82 20.0504 9.82429 20.6449 10.5047Z" stroke="white"/>
<circle cx="36.5291" cy="12.4709" r="8.10194" stroke="white" stroke-width="2"/>
<path fill-rule="evenodd" clip-rule="evenodd" d="M47.1442 1.53659L44.548 1.53659L44.548 0L47.1442 0C48.7214 0 49.9999 1.26125 49.9999 2.81708L49.9999 5.37807L48.4423 5.37807L48.4423 2.81708C48.4423 2.10989 47.8611 1.53659 47.1442 1.53659Z" fill="white"/>
<path fill-rule="evenodd" clip-rule="evenodd" d="M25.8558 25.6099L28.452 25.6099L28.452 27.1465L25.8558 27.1465C24.2786 27.1465 23 25.8852 23 24.3294L23 21.7684L24.5577 21.7684L24.5577 24.3294C24.5577 25.0366 25.1389 25.6099 25.8558 25.6099Z" fill="white"/>
<path fill-rule="evenodd" clip-rule="evenodd" d="M25.8558 1.53659L28.452 1.53659L28.452 0L25.8558 0C24.2786 0 23 1.26125 23 2.81708L23 5.37807L24.5577 5.37807L24.5577 2.81708C24.5577 2.10989 25.1389 1.53659 25.8558 1.53659Z" fill="white"/>
<path fill-rule="evenodd" clip-rule="evenodd" d="M47.1442 25.6099L44.548 25.6099L44.548 27.1465L47.1442 27.1465C48.7214 27.1465 49.9999 25.8852 50 24.3294L50 21.7684L48.4423 21.7684L48.4423 24.3294C48.4423 25.0366 47.8611 25.6099 47.1442 25.6099Z" fill="white"/>
</svg>
