<svg width="50" height="31" viewBox="0 0 50 31" fill="none" xmlns="http://www.w3.org/2000/svg">
<path fill-rule="evenodd" clip-rule="evenodd" d="M36.5435 1.73208L33.6012 1.73208L33.6012 0L36.5435 0C38.331 0 39.78 1.42171 39.78 3.17547L39.78 6.06226L38.0147 6.06226L38.0147 3.17547C38.0147 2.37831 37.356 1.73208 36.5435 1.73208Z" fill="#717171"/>
<path fill-rule="evenodd" clip-rule="evenodd" d="M12.4165 28.8679L15.3588 28.8679L15.3588 30.6L12.4165 30.6C10.629 30.6 9.17999 29.1783 9.17999 27.4245L9.17999 24.5377L10.9454 24.5377L10.9454 27.4245C10.9454 28.2217 11.604 28.8679 12.4165 28.8679Z" fill="#717171"/>
<path fill-rule="evenodd" clip-rule="evenodd" d="M12.4165 1.73208L15.3588 1.73208L15.3588 0L12.4165 0C10.629 0 9.17999 1.42171 9.17999 3.17547L9.17999 6.06226L10.9454 6.06226L10.9454 3.17547C10.9454 2.37831 11.604 1.73208 12.4165 1.73208Z" fill="#717171"/>
<path fill-rule="evenodd" clip-rule="evenodd" d="M36.5431 28.8679L33.6008 28.8679L33.6008 30.6L36.5431 30.6C38.3306 30.6 39.7796 29.1783 39.7796 27.4245L39.7796 24.5377L38.0142 24.5377L38.0142 27.4245C38.0142 28.2217 37.3556 28.8679 36.5431 28.8679Z" fill="#717171"/>
<path d="M11.3311 9.69311C12.1249 8.81806 13.5001 8.81806 14.2939 9.69311L22.592 18.8413C23.7578 20.1265 22.8459 22.185 21.1106 22.185H4.51438C2.77914 22.185 1.86718 20.1265 3.03301 18.8413L11.3311 9.69311Z" fill="#717171" fill-opacity="0.4"/>
<path d="M35.7061 9.69311C36.4999 8.81806 37.8751 8.81806 38.6689 9.69311L46.967 18.8413C48.1328 20.1265 47.2209 22.185 45.4856 22.185H28.8894C27.1541 22.185 26.2422 20.1265 27.408 18.8413L35.7061 9.69311Z" fill="#717171" fill-opacity="0.4"/>
<path d="M25.4738 6.04897L38.0979 20.185L12.6417 20.185L25.4738 6.04897Z" fill="#717171" stroke="#717171" stroke-width="4"/>
</svg>
