<svg width="35" height="35" viewBox="0 0 35 35" fill="none" xmlns="http://www.w3.org/2000/svg">
<path d="M35 5.52632V9.21053H29.4737V14.7368H25.7895V9.21053H20.2632V5.52632H25.7895V0H29.4737V5.52632H35ZM19.3421 18.4211C20.0752 18.4208 20.7781 18.1294 21.2963 17.6108C21.8145 17.0923 22.1055 16.3891 22.1053 15.6561C22.105 14.923 21.8136 14.22 21.295 13.7018C20.7765 13.1836 20.0733 12.8927 19.3403 12.8929C18.9773 12.893 18.6179 12.9646 18.2826 13.1037C17.9473 13.2427 17.6426 13.4464 17.386 13.7031C17.1294 13.9599 16.926 14.2647 16.7872 14.6001C16.6484 14.9355 16.577 15.2949 16.5771 15.6579C16.5772 16.0209 16.6488 16.3803 16.7879 16.7156C16.9269 17.0509 17.1306 17.3555 17.3873 17.6121C17.6441 17.8687 17.9489 18.0722 18.2843 18.211C18.6197 18.3498 18.9791 18.4212 19.3421 18.4211ZM25.7895 24.3784L24.8445 23.3284C24.499 22.9437 24.0763 22.636 23.6041 22.4254C23.1318 22.2148 22.6205 22.1059 22.1034 22.1059C21.5863 22.1059 21.075 22.2148 20.6028 22.4254C20.1305 22.636 19.7079 22.9437 19.3624 23.3284L18.1539 24.675L9.21053 14.7368L3.68421 20.8766V9.21053H16.5789V5.52632H3.68421C2.7071 5.52632 1.77 5.91447 1.07908 6.6054C0.388157 7.29632 0 8.23341 0 9.21053V31.3158C0 32.2929 0.388157 33.23 1.07908 33.9209C1.77 34.6118 2.7071 35 3.68421 35H25.7895C26.7666 35 27.7037 34.6118 28.3946 33.9209C29.0855 33.23 29.4737 32.2929 29.4737 31.3158V18.4211H25.7895V24.3784Z" fill="white"/>
</svg>
