<svg width="30" height="25" viewBox="0 0 30 25" fill="none" xmlns="http://www.w3.org/2000/svg">
<path d="M16.75 8.75H14.25V6.25H16.75M16.75 18.75H14.25V11.25H16.75M15.5 0C13.8585 0 12.233 0.323322 10.7165 0.951506C9.19989 1.57969 7.8219 2.50043 6.66117 3.66117C4.31696 6.00537 3 9.18479 3 12.5C3 15.8152 4.31696 18.9946 6.66117 21.3388C7.8219 22.4996 9.19989 23.4203 10.7165 24.0485C12.233 24.6767 13.8585 25 15.5 25C18.8152 25 21.9946 23.683 24.3388 21.3388C26.683 18.9946 28 15.8152 28 12.5C28 10.8585 27.6767 9.23303 27.0485 7.71646C26.4203 6.19989 25.4996 4.8219 24.3388 3.66117C23.1781 2.50043 21.8001 1.57969 20.2835 0.951506C18.767 0.323322 17.1415 0 15.5 0Z" fill="white"/>
</svg>
