<svg width="22" height="22" viewBox="0 0 22 22" fill="none" xmlns="http://www.w3.org/2000/svg">
<path d="M11 16C9.61667 16 8.43734 15.5123 7.462 14.537C6.48667 13.5617 5.99934 12.3827 6 11C6 9.61667 6.48767 8.43734 7.463 7.462C8.43834 6.48667 9.61734 5.99934 11 6C12.3833 6 13.5627 6.48767 14.538 7.463C15.5133 8.43834 16.0007 9.61734 16 11C16 12.3833 15.5123 13.5627 14.537 14.538C13.5617 15.5133 12.3827 16.0007 11 16ZM1 12C0.71667 12 0.479003 11.904 0.287003 11.712C0.0950034 11.52 -0.000663206 11.2827 3.46021e-06 11C3.46021e-06 10.7167 0.0960034 10.479 0.288003 10.287C0.480003 10.095 0.717337 9.99934 1 10H3C3.28334 10 3.521 10.096 3.713 10.288C3.905 10.48 4.00067 10.7173 4 11C4 11.2833 3.904 11.521 3.712 11.713C3.52 11.905 3.28267 12.0007 3 12H1ZM19 12C18.7167 12 18.479 11.904 18.287 11.712C18.095 11.52 17.9993 11.2827 18 11C18 10.7167 18.096 10.479 18.288 10.287C18.48 10.095 18.7173 9.99934 19 10H21C21.2833 10 21.521 10.096 21.713 10.288C21.905 10.48 22.0007 10.7173 22 11C22 11.2833 21.904 11.521 21.712 11.713C21.52 11.905 21.2827 12.0007 21 12H19ZM11 4C10.7167 4 10.479 3.904 10.287 3.712C10.095 3.52 9.99934 3.28267 10 3V1C10 0.71667 10.096 0.479003 10.288 0.287003C10.48 0.0950034 10.7173 -0.000663206 11 3.46021e-06C11.2833 3.46021e-06 11.521 0.0960034 11.713 0.288003C11.905 0.480003 12.0007 0.717337 12 1V3C12 3.28334 11.904 3.521 11.712 3.713C11.52 3.905 11.2827 4.00067 11 4ZM11 22C10.7167 22 10.479 21.904 10.287 21.712C10.095 21.52 9.99934 21.2827 10 21V19C10 18.7167 10.096 18.479 10.288 18.287C10.48 18.095 10.7173 17.9993 11 18C11.2833 18 11.521 18.096 11.713 18.288C11.905 18.48 12.0007 18.7173 12 19V21C12 21.2833 11.904 21.521 11.712 21.713C11.52 21.905 11.2827 22.0007 11 22ZM4.65 6.05L3.575 5C3.375 4.81667 3.279 4.58334 3.287 4.3C3.295 4.01667 3.391 3.775 3.575 3.575C3.775 3.375 4.01667 3.275 4.3 3.275C4.58334 3.275 4.81667 3.375 5 3.575L6.05 4.65C6.23334 4.85 6.325 5.08334 6.325 5.35C6.325 5.61667 6.23334 5.85 6.05 6.05C5.86667 6.25 5.63767 6.346 5.363 6.338C5.08834 6.33 4.85067 6.234 4.65 6.05ZM17 18.425L15.95 17.35C15.7667 17.15 15.675 16.9123 15.675 16.637C15.675 16.3617 15.7667 16.1327 15.95 15.95C16.1333 15.75 16.3627 15.6543 16.638 15.663C16.9133 15.6717 17.1507 15.7673 17.35 15.95L18.425 17C18.625 17.1833 18.721 17.4167 18.713 17.7C18.705 17.9833 18.609 18.225 18.425 18.425C18.225 18.625 17.9833 18.725 17.7 18.725C17.4167 18.725 17.1833 18.625 17 18.425ZM15.95 6.05C15.75 5.86667 15.654 5.63767 15.662 5.363C15.67 5.08834 15.766 4.85067 15.95 4.65L17 3.575C17.1833 3.375 17.4167 3.279 17.7 3.287C17.9833 3.295 18.225 3.391 18.425 3.575C18.625 3.775 18.725 4.01667 18.725 4.3C18.725 4.58334 18.625 4.81667 18.425 5L17.35 6.05C17.15 6.23334 16.9167 6.325 16.65 6.325C16.3833 6.325 16.15 6.23334 15.95 6.05ZM3.575 18.425C3.375 18.225 3.275 17.9833 3.275 17.7C3.275 17.4167 3.375 17.1833 3.575 17L4.65 15.95C4.85 15.7667 5.08734 15.675 5.362 15.675C5.63667 15.675 5.866 15.7667 6.05 15.95C6.25 16.1333 6.346 16.3627 6.338 16.638C6.33 16.9133 6.234 17.1507 6.05 17.35L5 18.425C4.81667 18.625 4.58334 18.721 4.3 18.713C4.01667 18.705 3.775 18.609 3.575 18.425Z" fill="white"/>
</svg>
